<svg width="56" height="56" viewBox="0 0 56 56" fill="none" xmlns="http://www.w3.org/2000/svg">
<g filter="url(#filter0_d_18216_3)">
<circle cx="27" cy="24" r="19" fill="white"/>
</g>
<g clip-path="url(#clip0_18216_3)">
<path d="M31.4056 13.9815H35.1057C35.308 13.9815 35.4719 13.8176 35.4719 13.6153C35.4719 13.4131 35.308 13.2491 35.1057 13.2491H31.4056C31.2033 13.2491 31.0394 13.4131 31.0394 13.6153C31.0394 13.8176 31.2034 13.9815 31.4056 13.9815Z" fill="#4F667A"/>
<path d="M31.4056 15.6725H33.2556C33.4579 15.6725 33.6219 15.5085 33.6219 15.3062C33.6219 15.104 33.4579 14.94 33.2556 14.94H31.4056C31.2033 14.94 31.0394 15.104 31.0394 15.3062C31.0394 15.5085 31.2034 15.6725 31.4056 15.6725Z" fill="#4F667A"/>
<path d="M35.1064 16.649H31.4063C31.204 16.649 31.0401 16.813 31.0401 17.0153C31.0401 17.2175 31.204 17.3815 31.4063 17.3815H35.1064C35.3087 17.3815 35.4726 17.2175 35.4726 17.0153C35.4726 16.813 35.3086 16.649 35.1064 16.649Z" fill="#4F667A"/>
<path d="M31.4056 19.0725H33.2556C33.4579 19.0725 33.6219 18.9085 33.6219 18.7063C33.6219 18.504 33.4579 18.34 33.2556 18.34H31.4056C31.2033 18.34 31.0394 18.504 31.0394 18.7063C31.0394 18.9085 31.2034 19.0725 31.4056 19.0725Z" fill="#4F667A"/>
<path d="M35.1064 20.0239H31.4063C31.204 20.0239 31.0401 20.1879 31.0401 20.3902C31.0401 20.5924 31.204 20.7564 31.4063 20.7564H35.1064C35.3087 20.7564 35.4726 20.5924 35.4726 20.3902C35.4726 20.1879 35.3086 20.0239 35.1064 20.0239Z" fill="#4F667A"/>
<path d="M31.4056 22.4473H33.2556C33.4579 22.4473 33.6219 22.2833 33.6219 22.0811C33.6219 21.8788 33.4579 21.7148 33.2556 21.7148H31.4056C31.2033 21.7148 31.0394 21.8788 31.0394 22.0811C31.0394 22.2833 31.2034 22.4473 31.4056 22.4473Z" fill="#4F667A"/>
<path d="M35.1064 23.4306H31.4063C31.204 23.4306 31.0401 23.5946 31.0401 23.7968C31.0401 23.9991 31.204 24.1631 31.4063 24.1631H35.1064C35.3087 24.1631 35.4726 23.9991 35.4726 23.7968C35.4726 23.5946 35.3086 23.4306 35.1064 23.4306Z" fill="#4F667A"/>
<path d="M33.2556 25.1215H31.4056C31.2033 25.1215 31.0394 25.2855 31.0394 25.4877C31.0394 25.69 31.2033 25.854 31.4056 25.854H33.2556C33.4579 25.854 33.6219 25.69 33.6219 25.4877C33.6219 25.2855 33.4579 25.1215 33.2556 25.1215Z" fill="#4F667A"/>
<path d="M31.9548 30.7869C31.9548 32.1932 31.403 33.5111 30.402 34.499C29.4186 35.4687 28.1216 36 26.7422 36C26.7173 36 26.6924 36 26.6675 35.9995C26.4468 35.9961 26.2285 35.9795 26.0127 35.9487C24.9101 35.7935 23.8856 35.2876 23.0775 34.4872C22.1116 33.5312 21.5618 32.2616 21.5296 30.9134C21.4861 29.0862 22.4027 27.3737 23.934 26.3937V13.8077C23.934 12.5128 24.8149 11.4199 26.0093 11.0972C26.2427 11.0337 26.4883 11 26.7417 11C28.2896 11 29.5494 12.2593 29.5494 13.8077V26.3937C31.0383 27.3478 31.9548 29.0114 31.9548 30.7869Z" fill="#E9F5FF"/>
<path d="M31.9548 30.7869C31.9548 32.1932 31.403 33.5111 30.402 34.499C29.4185 35.4687 28.1216 36 26.7422 36C25.8295 36 25.2773 36 25.2773 36C25.5253 36 25.7709 35.9829 26.0126 35.9487C27.1133 35.7944 28.1309 35.2944 28.9371 34.499C29.9386 33.5111 30.4899 32.1932 30.4899 30.7869C30.4899 29.0114 29.5733 28.8215 28.0845 27.8674V13.8077C28.0845 12.5128 27.2031 11.4199 26.0092 11.0972C26.2426 11.0337 26.4882 11 26.7417 11C28.2896 11 29.5494 12.2593 29.5494 13.8077V26.3937C31.0382 27.3478 31.9548 29.0114 31.9548 30.7869Z" fill="#CDEAF7"/>
<path d="M30.4899 30.7942C30.4899 31.805 30.0934 32.7528 29.3731 33.4628C28.6666 34.1601 27.732 34.5424 26.7383 34.5424C26.7212 34.5424 26.7046 34.5424 26.688 34.5419C26.5005 34.5395 26.3149 34.5224 26.1323 34.4926C25.373 34.3671 24.6689 34.0087 24.1083 33.4535C23.413 32.7655 23.0169 31.8534 22.994 30.886C22.9618 29.5203 23.6747 28.2438 24.8544 27.5544C25.1899 27.3586 25.3989 26.9948 25.3989 26.6061V13.8151C25.3989 13.2945 25.6967 12.8419 26.1313 12.6192C26.3144 12.525 26.522 12.4722 26.7417 12.4722C27.482 12.4722 28.084 13.0748 28.084 13.8151V26.6061C28.084 26.9948 28.293 27.3586 28.6285 27.5544C29.7765 28.2253 30.4899 29.4665 30.4899 30.7942Z" fill="#FF6E6E"/>
<path d="M30.4899 30.7942C30.4899 31.805 30.0934 32.7528 29.3731 33.4628C28.6666 34.1601 27.732 34.5424 26.7383 34.5424C26.7212 34.5424 26.7046 34.5424 26.688 34.5419C26.5005 34.5395 26.3149 34.5224 26.1323 34.4926C26.8926 34.3686 27.5938 34.0141 28.1524 33.4628C28.8726 32.7528 29.2691 31.805 29.2691 30.7942C29.2691 29.4665 28.5557 28.2253 27.4077 27.5544C27.0723 27.3586 26.8633 26.9948 26.8633 26.6061V13.8151C26.8633 13.2945 26.5654 12.8424 26.1313 12.6192C26.3144 12.525 26.522 12.4722 26.7417 12.4722C27.482 12.4722 28.084 13.0748 28.084 13.8151V26.6061C28.084 26.9948 28.293 27.3586 28.6285 27.5544C29.7765 28.2253 30.4899 29.4665 30.4899 30.7942Z" fill="#F44E92"/>
<path d="M28.084 13.8151V17.0154H25.3989V13.8151C25.3989 13.2945 25.6967 12.8419 26.1313 12.6192C26.3144 12.525 26.5219 12.4722 26.7417 12.4722C27.4819 12.4722 28.084 13.0748 28.084 13.8151Z" fill="#4F667A"/>
<path d="M28.084 13.8151V17.0154H26.8633V13.8151C26.8633 13.2945 26.5654 12.8424 26.1313 12.6192C26.3144 12.525 26.522 12.4722 26.7417 12.4722C27.482 12.4722 28.084 13.0748 28.084 13.8151Z" fill="#3A5366"/>
</g>
<defs>
<filter id="filter0_d_18216_3" x="0" y="0" width="56" height="56" filterUnits="userSpaceOnUse" color-interpolation-filters="sRGB">
<feFlood flood-opacity="0" result="BackgroundImageFix"/>
<feColorMatrix in="SourceAlpha" type="matrix" values="0 0 0 0 0 0 0 0 0 0 0 0 0 0 0 0 0 0 127 0" result="hardAlpha"/>
<feMorphology radius="1" operator="erode" in="SourceAlpha" result="effect1_dropShadow_18216_3"/>
<feOffset dx="1" dy="4"/>
<feGaussianBlur stdDeviation="5"/>
<feComposite in2="hardAlpha" operator="out"/>
<feColorMatrix type="matrix" values="0 0 0 0 0.278431 0 0 0 0 0.576471 0 0 0 0 1 0 0 0 0.2 0"/>
<feBlend mode="normal" in2="BackgroundImageFix" result="effect1_dropShadow_18216_3"/>
<feBlend mode="normal" in="SourceGraphic" in2="effect1_dropShadow_18216_3" result="shape"/>
</filter>
<clipPath id="clip0_18216_3">
<rect width="25" height="25" fill="white" transform="translate(16 11)"/>
</clipPath>
</defs>
</svg>
